<svg width="20" height="24" viewBox="0 0 20 24" fill="none" xmlns="http://www.w3.org/2000/svg">
<path d="M16.7045 12.7629C16.7166 11.843 16.9669 10.941 17.4321 10.1409C17.8972 9.34083 18.5621 8.66864 19.3648 8.18684C18.8548 7.47574 18.1821 6.89063 17.4 6.47783C16.6178 6.06503 15.7479 5.83594 14.8592 5.80884C12.9635 5.61454 11.1258 6.91624 10.1598 6.91624C9.1751 6.91624 7.6878 5.82804 6.0862 5.86024C5.0502 5.89294 4.0406 6.18703 3.1557 6.71393C2.2708 7.24083 1.54075 7.98243 1.03674 8.86673C-1.14648 12.5571 0.482005 17.9807 2.5734 20.9638C3.6197 22.4245 4.8426 24.0561 6.4428 23.9983C8.0086 23.9349 8.5934 23.0235 10.4835 23.0235C12.3561 23.0235 12.9048 23.9983 14.5374 23.9615C16.2176 23.9349 17.2762 22.4943 18.2859 21.0197C19.0377 19.9789 19.6162 18.8286 20 17.6114C19.0238 17.2083 18.1908 16.5336 17.6048 15.6714C17.0187 14.8092 16.7056 13.7977 16.7045 12.7629Z" fill="#808080"/>
<path d="M13.6208 3.8471C14.5369 2.7734 14.9883 1.39335 14.879 0C13.4793 0.14352 12.1865 0.7966 11.258 1.82911C10.804 2.3335 10.4563 2.9203 10.2348 3.556C10.0132 4.1917 9.92221 4.8638 9.96691 5.5338C10.6669 5.5408 11.3595 5.3927 11.9924 5.1005C12.6253 4.8084 13.1821 4.3798 13.6208 3.8471Z" fill="#808080"/>
</svg>
