<svg width="109" height="78" viewBox="0 0 109 78" fill="none" xmlns="http://www.w3.org/2000/svg">
<path d="M54.0515 43.2166C55.4456 43.2166 56.7637 42.6642 58.1408 41.4234L102.397 2.15295C100.027 0.669194 97.3125 0 93.6486 0H14.4904C10.8347 0 8.11979 0.669194 5.7062 2.15295L49.97 41.4234C51.3754 42.6642 52.7016 43.2166 54.0515 43.2166ZM1.11669 69.9578L33.9079 37.1033L1.07605 7.95229C0.542441 9.09036 0 11.3825 0 14.3925V63.3669C0 66.1472 0.425825 68.2177 1.11669 69.9578ZM13.3799 77.7594H94.7671C97.9839 77.7594 100.557 77.0014 102.347 75.8733L68.6126 42.0278L62.5687 47.4303C59.8399 49.8501 57.0411 51.0183 54.0515 51.0183C51.1061 51.0183 48.3073 49.8501 45.5781 47.4303L39.5346 42.0278L5.79984 75.8733C7.58972 77.0014 10.127 77.7594 13.3799 77.7594ZM107.031 69.9578C107.685 68.2177 108.147 66.1472 108.147 63.3669V14.3925C108.147 11.3825 107.605 9.09036 107.071 7.95229L74.2314 37.1033L107.031 69.9578Z" fill="#808080"/>
</svg>
