<svg width="78" height="78" viewBox="0 0 78 78" fill="none" xmlns="http://www.w3.org/2000/svg">
<path d="M10.3847 0C4.66284 0 0.00418943 4.65775 0 10.3841C0 16.1105 4.65865 20.7691 10.3847 20.7691C16.1087 20.7691 20.7649 16.1105 20.7649 10.3841C20.7649 4.65835 16.1084 0 10.3847 0Z" fill="#808080"/>
<path d="M18.1786 24.9414H2.58972C1.84819 24.9414 1.2467 25.5426 1.2467 26.2847V76.4607C1.2467 77.2025 1.84819 77.8037 2.58972 77.8037H18.1783C18.9201 77.8037 19.5216 77.2022 19.5216 76.4607V26.2847C19.5219 25.5423 18.9204 24.9414 18.1786 24.9414Z" fill="#808080"/>
<path d="M58.0308 24.3506C52.326 24.3506 47.3128 26.0877 44.2536 28.9204V26.2846C44.2536 25.5425 43.6521 24.9413 42.9103 24.9413H27.9567C27.2149 24.9413 26.6134 25.5425 26.6134 26.2846V76.4606C26.6134 77.2024 27.2149 77.8036 27.9567 77.8036H43.5306C44.2725 77.8036 44.8739 77.2021 44.8739 76.4606V51.6361C44.8739 44.5134 46.184 40.0987 52.7222 40.0987C59.1638 40.1064 59.6459 44.8405 59.6459 52.0616V76.4606C59.6459 77.2024 60.2473 77.8036 60.9895 77.8036H76.5706C77.3121 77.8036 77.9136 77.2021 77.9136 76.4606V48.9369C77.9133 37.4898 75.6534 24.3506 58.0308 24.3506Z" fill="#808080"/>
</svg>
