<svg width="21" height="24" viewBox="0 0 21 24" fill="none" xmlns="http://www.w3.org/2000/svg">
<path d="M9.8048 11.4619L0.0895996 22.0061C0.0905096 22.008 0.0905102 22.0108 0.0914202 22.0127C0.38981 23.1576 1.41179 24.0002 2.6254 24.0002C3.1108 24.0002 3.5662 23.8658 3.9567 23.6307L3.9877 23.612L14.9229 17.1595L9.8048 11.4619Z" fill="#EA4335"/>
<path d="M19.633 9.66633L19.6239 9.65983L14.9027 6.86133L9.58389 11.7014L14.9219 17.1583L19.6175 14.3879C20.4406 13.9325 20.9999 13.0451 20.9999 12.0224C20.9999 11.0053 20.4488 10.1226 19.633 9.66633Z" fill="#FBBC04"/>
<path d="M0.0894203 1.99316C0.0310203 2.21341 0 2.44481 0 2.68371V21.3162C0 21.5551 0.0310197 21.7865 0.0903397 22.0058L10.1386 11.7312L0.0894203 1.99316Z" fill="#4285F4"/>
<path d="M9.8765 11.9999L14.9043 6.85934L3.9819 0.38352C3.585 0.13997 3.1214 0 2.6259 0C1.41233 0 0.388534 0.84448 0.0901537 1.99035L0.0892334 1.99315L9.8765 11.9999Z" fill="#34A853"/>
</svg>
