<svg width="147" height="146" viewBox="0 0 147 146" fill="none" xmlns="http://www.w3.org/2000/svg">
<path d="M113.994 146C109.206 146 104.673 145.338 100.394 144.015C96.1154 142.793 92.6008 140.298 89.8503 136.531C87.2017 132.764 85.8773 127.266 85.8773 120.038V49.9393C85.8773 42.6088 85.3171 35.2273 84.1965 27.795C83.1778 20.2608 80.7328 13.9993 76.8617 9.01046C73.0925 4.02162 67.1331 1.5272 58.9834 1.5272C53.2786 1.5272 47.6247 2.23989 42.0218 3.66527C36.4189 5.09065 31.2744 7.12692 26.5884 9.77406C22.0042 12.3194 18.2859 15.4247 15.4335 19.09C12.683 22.6534 11.3077 26.675 11.3077 31.1548H11.0021C11.0021 25.9623 12.683 21.8898 16.0447 18.9372C19.5083 15.8828 23.2775 14.3556 27.3524 14.3556C31.7329 14.3556 35.7058 15.781 39.2713 18.6318C42.9387 21.3808 44.7724 25.3515 44.7724 30.5439C44.7724 36.6527 42.8877 41.0816 39.1185 43.8305C35.4511 46.5795 31.5291 47.954 27.3524 47.954C22.6663 47.954 18.6933 46.5286 15.4335 43.6778C12.2755 40.8271 10.6965 36.6527 10.6965 31.1548C10.6965 26.3696 12.1736 22.0934 15.1279 18.3264C18.184 14.4575 22.2588 11.1994 27.3524 8.5523C32.5478 5.80335 38.4054 3.71618 44.9252 2.29079C51.4449 0.763598 58.1684 0 65.0956 0C79.1538 0 89.5956 2.44351 96.421 7.33054C103.348 12.2176 107.882 18.4791 110.021 26.1151C112.262 33.751 113.383 41.6925 113.383 49.9393V129.048C113.383 132.713 114.096 135.921 115.522 138.669C117.05 141.317 120.004 142.64 124.385 142.64C127.95 142.64 131.872 140.909 136.151 137.448C140.531 133.986 143.995 129.354 146.542 123.55L147 123.856C144.351 130.372 140.073 135.717 134.164 139.891C128.256 143.964 121.532 146 113.994 146ZM43.5499 146C30.3067 146 19.7121 142.64 11.7661 135.921C3.92204 129.099 0 119.885 0 108.278C0 94.6353 5.70478 84.1994 17.1143 76.9707C28.6258 69.6402 45.2308 65.9749 66.9293 65.9749H100.088V66.5858H66.9293C57.9647 66.5858 50.8846 68.8257 45.6892 73.3054C40.5956 77.6834 36.9283 82.9777 34.6871 89.1883C32.5478 95.3989 31.4782 101.304 31.4782 106.904C31.4782 111.994 32.0894 117.34 33.3119 122.939C34.5343 128.437 36.6736 133.121 39.7297 136.99C42.7859 140.757 46.9626 142.64 52.2599 142.64C58.3721 142.64 63.9751 140.808 69.0686 137.142C74.1622 133.375 78.237 127.47 81.2931 119.427C84.3493 111.384 85.8773 100.846 85.8773 87.8138H86.4886C86.4886 99.4205 85.0624 109.602 82.21 118.358C79.3576 127.114 74.7734 133.935 68.4574 138.822C62.2432 143.607 53.9408 146 43.5499 146Z" fill="white"/>
</svg>
