<svg width="105" height="40" viewBox="0 0 105 40" fill="none" xmlns="http://www.w3.org/2000/svg">
<rect x="0.5" y="0.5" width="104" height="39" rx="5.5" fill="black"/>
<rect x="0.5" y="0.5" width="104" height="39" rx="5.5" stroke="#A6A6A6"/>
<path fill-rule="evenodd" clip-rule="evenodd" d="M20 7C13.37 7 8 12.2764 8 18.7909C8 24.0083 11.435 28.4152 16.205 29.9775C16.805 30.0806 17.03 29.7269 17.03 29.4174C17.03 29.1374 17.015 28.2088 17.015 27.2214C14 27.7667 13.22 26.4992 12.98 25.8359C12.845 25.4969 12.26 24.4505 11.75 24.1705C11.33 23.9494 10.73 23.4041 11.735 23.3893C12.68 23.3746 13.355 24.2442 13.58 24.5979C14.66 26.3813 16.385 25.8801 17.075 25.5706C17.18 24.8042 17.495 24.2884 17.84 23.9936C15.17 23.6988 12.38 22.6819 12.38 18.1719C12.38 16.8896 12.845 15.8284 13.61 15.0031C13.49 14.7083 13.07 13.4997 13.73 11.8785C13.73 11.8785 14.735 11.569 17.03 13.087C17.99 12.8217 19.01 12.6891 20.03 12.6891C21.05 12.6891 22.07 12.8217 23.03 13.087C25.325 11.5542 26.33 11.8785 26.33 11.8785C26.99 13.4997 26.57 14.7083 26.45 15.0031C27.215 15.8284 27.68 16.8749 27.68 18.1719C27.68 22.6966 24.875 23.6988 22.205 23.9936C22.64 24.3621 23.015 25.0695 23.015 26.1749C23.015 27.7519 23 29.0195 23 29.4174C23 29.7269 23.225 30.0954 23.825 29.9775C28.565 28.4152 32 23.9936 32 18.7909C32 12.2764 26.63 7 20 7Z" fill="white"/>
<path d="M39.0938 7.00146C40.3242 7.00146 41.0669 7.82764 41.0669 8.93945C41.0669 10.0601 40.3154 10.873 39.085 10.873H37.7886V13H36.791V7.00146H39.0938ZM40.0474 8.93945C40.0474 8.23193 39.6387 7.82764 38.9443 7.82764H37.7842V10.0557H38.9443C39.6387 10.0557 40.0474 9.64697 40.0474 8.93945ZM42.1919 13V8.35498H43.1631V9.08008H43.2158C43.3169 8.76807 43.6553 8.28906 44.4331 8.28906C44.5649 8.28906 44.6704 8.29785 44.7627 8.31543V9.17676C44.6792 9.15479 44.5078 9.1416 44.3452 9.1416C43.563 9.1416 43.1807 9.60742 43.1807 10.2358V13H42.1919ZM47.584 8.27588C48.7969 8.27588 49.645 9.0625 49.645 10.3677V10.9697C49.645 12.3188 48.7969 13.0791 47.584 13.0791C46.3535 13.0791 45.5142 12.3276 45.5142 10.9741V10.3721C45.5142 9.10205 46.3667 8.27588 47.584 8.27588ZM47.5884 9.0625C46.894 9.0625 46.4985 9.64258 46.4985 10.4204V10.939C46.4985 11.7168 46.8677 12.2925 47.5884 12.2925C48.3003 12.2925 48.665 11.7212 48.665 10.939V10.4204C48.665 9.64258 48.2827 9.0625 47.5884 9.0625ZM50.8447 6.95752C50.8447 6.60596 51.1128 6.35986 51.4819 6.35986C51.8687 6.35986 52.1367 6.60596 52.1367 6.95752C52.1367 7.30469 51.8687 7.54639 51.4819 7.54639C51.1128 7.54639 50.8447 7.30469 50.8447 6.95752ZM51.9741 8.35498V13.1055C51.9741 14.1558 51.4512 14.6304 50.5679 14.6304C50.4141 14.6304 50.1812 14.6084 50.1064 14.5908V13.8657C50.1724 13.8789 50.2822 13.8833 50.3789 13.8833C50.8359 13.8833 51.0029 13.6372 51.0029 13.0923V8.35498H51.9741ZM55.3799 13.0791C54.1143 13.0791 53.3276 12.3013 53.3276 10.9917V10.3633C53.3276 9.04492 54.189 8.27588 55.3228 8.27588C56.4873 8.27588 57.3091 9.08447 57.3091 10.3633V10.9082H54.2944V11.1367C54.2944 11.8047 54.6899 12.2969 55.3755 12.2969C55.8853 12.2969 56.2368 12.0552 56.3027 11.7651H57.2563C57.1992 12.3013 56.6323 13.0791 55.3799 13.0791ZM54.2944 10.271H56.3555V10.2095C56.3555 9.51074 55.9468 9.04492 55.3271 9.04492C54.7075 9.04492 54.2944 9.51074 54.2944 10.2095V10.271ZM58.3198 11.0005V10.3281C58.3198 9.08447 59.0933 8.27588 60.3237 8.27588C61.5103 8.27588 62.1519 9.00537 62.1738 9.79639H61.251C61.2114 9.50195 60.9917 9.08887 60.3457 9.08887C59.6646 9.08887 59.2998 9.58105 59.2998 10.3501V11.0005C59.2998 11.7827 59.6909 12.2705 60.3501 12.2705C60.9697 12.2705 61.2114 11.9761 61.2773 11.6069H62.2002C62.1738 12.3936 61.5718 13.0791 60.3237 13.0791C59.0845 13.0791 58.3198 12.2837 58.3198 11.0005ZM63.6548 8.38574V7.22559H64.6084V8.38574H65.6499V9.15039H64.6084V11.6157C64.6084 12.1211 64.7974 12.2617 65.3203 12.2617C65.4521 12.2617 65.6279 12.2529 65.7026 12.2441V12.9912C65.6235 13.0044 65.2983 13.0308 65.0786 13.0308C63.9492 13.0308 63.6416 12.6265 63.6416 11.6948V9.15039H62.9341V8.38574H63.6548ZM70.7344 8.27588C71.9473 8.27588 72.7954 9.0625 72.7954 10.3677V10.9697C72.7954 12.3188 71.9473 13.0791 70.7344 13.0791C69.5039 13.0791 68.6646 12.3276 68.6646 10.9741V10.3721C68.6646 9.10205 69.5171 8.27588 70.7344 8.27588ZM70.7388 9.0625C70.0444 9.0625 69.6489 9.64258 69.6489 10.4204V10.939C69.6489 11.7168 70.0181 12.2925 70.7388 12.2925C71.4507 12.2925 71.8154 11.7212 71.8154 10.939V10.4204C71.8154 9.64258 71.4331 9.0625 70.7388 9.0625ZM74.0522 13V8.35498H75.0103V9.18994H75.0586C75.1772 8.8252 75.5156 8.28467 76.4561 8.28467C77.3921 8.28467 78.0205 8.80322 78.0205 9.8623V13H77.0449V10.1479C77.0449 9.44043 76.6758 9.11523 76.1265 9.11523C75.4058 9.11523 75.0278 9.66895 75.0278 10.4204V13H74.0522Z" fill="white"/>
<g clip-path="url(#clip0_69_112)">
<path d="M42.1313 23.4432C42.0274 23.4432 41.9235 23.5463 41.9235 23.6494V25.7628C41.9235 25.8659 42.0274 25.969 42.1313 25.969H43.846V28.5979C43.846 28.5979 43.4823 28.7525 42.3911 28.7525C41.1441 28.7525 39.4294 28.2886 39.4294 24.4742C39.4294 20.6597 41.248 20.1958 42.9627 20.1958C44.4696 20.1958 45.0931 20.4536 45.5088 20.5567C45.6127 20.6082 45.7686 20.4536 45.7686 20.3505L46.2362 18.2886C46.2362 18.2371 46.2362 18.1855 46.1323 18.134C45.9764 18.0309 44.9892 17.4639 42.4431 17.4639C39.4813 17.4639 36.5715 18.6494 36.5715 24.6288C36.5715 30.5567 40.0009 31.4329 42.8588 31.4329C45.249 31.4329 46.7039 30.4536 46.7039 30.4536C46.7558 30.402 46.7558 30.3505 46.7558 30.2989V23.6494C46.7558 23.5463 46.6519 23.4432 46.548 23.4432" fill="white"/>
<path d="M68.9951 18.1856C68.9951 18.0825 68.8912 17.9794 68.7873 17.9794H66.3451C66.2412 17.9794 66.1373 18.0825 66.1373 18.1856V22.8763H62.2922V18.1856C62.2922 18.0825 62.1882 17.9794 62.0843 17.9794H59.6422C59.5382 17.9794 59.4343 18.0825 59.4343 18.1856V30.9175C59.4343 31.0206 59.5382 31.1237 59.6422 31.1237H62.0843C62.1882 31.1237 62.2922 31.0206 62.2922 30.9175V25.4536H66.1373V30.9175C66.1373 31.0206 66.2412 31.1237 66.3451 31.1237H68.7873C68.8912 31.1237 68.9951 31.0206 68.9951 30.9175V18.1856Z" fill="white"/>
<path d="M49.5617 21.4846C50.4513 21.4846 51.1725 20.7692 51.1725 19.8866C51.1725 19.0041 50.4513 18.2887 49.5617 18.2887C48.6721 18.2887 47.9509 19.0041 47.9509 19.8866C47.9509 20.7692 48.6721 21.4846 49.5617 21.4846Z" fill="white"/>
<path d="M50.9648 22.3608C50.9648 22.2578 50.8609 22.1547 50.7569 22.1547H48.3148C48.2109 22.1547 48.1069 22.2578 48.1069 22.3608V30.8145C48.1069 31.0722 48.2628 31.1237 48.4707 31.1237H50.705C50.9648 31.1237 51.0167 31.0206 51.0167 30.8145" fill="white"/>
<path d="M75.9059 22.2062C75.802 22.2062 75.6981 22.3093 75.6981 22.4124V28.6495C75.6981 28.6495 75.0745 29.1134 74.1912 29.1134C73.3079 29.1134 73.1 28.701 73.1 27.8763V22.4124C73.1 22.3093 72.9961 22.2062 72.8922 22.2062H70.45C70.3461 22.2062 70.2422 22.3093 70.2422 22.4124V28.2887C70.2422 30.8144 71.6451 31.433 73.6196 31.433C75.2304 31.433 76.5294 30.5567 76.5294 30.5567C76.5294 30.5567 76.5814 31.0206 76.6334 31.0722C76.6853 31.1237 76.7373 31.1752 76.7892 31.1752H78.3481C78.452 31.1752 78.5559 31.0722 78.5559 30.9691V22.4124C78.5559 22.3093 78.452 22.2062 78.3481 22.2062" fill="white"/>
<path d="M84.1158 29.1649C83.0765 29.1649 82.6089 28.701 82.6089 28.701V24.6289C82.6089 24.6289 83.1805 24.268 83.856 24.2165C84.7393 24.1134 85.5707 24.4227 85.5707 26.4845C85.5707 28.701 85.3109 29.1649 84.0638 29.1649H84.1158ZM82.7128 22.5155V18.1856C82.7128 18.0825 82.6089 17.9794 82.505 17.9794H80.0628C79.9589 17.9794 79.855 18.0825 79.855 18.1856V30.9175C79.855 31.0206 79.9589 31.1237 80.0628 31.1237H81.7775C81.8295 31.1237 81.9334 31.0722 81.9334 31.0206C81.9854 30.9691 82.0373 30.4536 82.0373 30.4536C82.0373 30.4536 83.0246 31.433 84.9471 31.433C87.1815 31.433 88.4805 30.299 88.4805 26.3814C88.4805 22.4639 86.454 21.9484 85.0511 21.9484C83.6481 21.9484 82.7128 22.567 82.7128 22.567V22.5155Z" fill="white"/>
<path d="M56.2129 22.1546V19.7319C56.2129 19.6288 56.1609 19.5773 56.057 19.5773H53.5109C53.407 19.5773 53.355 19.6288 53.355 19.7835V22.3092C53.355 22.3092 52.1079 22.6185 52.004 22.6185C51.9001 22.6701 51.8481 22.7216 51.8481 22.8247V24.4226C51.8481 24.5257 51.9521 24.6288 52.056 24.6288H53.355V28.3917C53.355 31.2268 55.3295 31.4845 56.6805 31.4845C57.304 31.4845 58.0315 31.2783 58.1354 31.2268C58.1874 31.1752 58.2393 31.1237 58.2393 31.0206V29.3195C58.2393 29.2164 58.1354 29.1134 58.0315 29.1134C57.9276 29.1134 57.6678 29.1649 57.356 29.1649C56.4727 29.1649 56.1609 28.7525 56.1609 28.1855C56.1609 27.6185 56.1609 24.6288 56.1609 24.6288H57.9795C58.0834 24.6288 58.1874 24.5257 58.1874 24.4226V22.3608C58.1874 22.2577 58.0834 22.1546 57.9795 22.1546" fill="white"/>
</g>
<defs>
<clipPath id="clip0_69_112">
<rect width="53" height="15" fill="white" transform="translate(36 17)"/>
</clipPath>
</defs>
</svg>
